<svg width="647" height="647" viewBox="0 0 647 647" fill="none" xmlns="http://www.w3.org/2000/svg">
  <circle cx="323.5" cy="323.5" r="316" fill="none" stroke="white" stroke-width="15"/>
  <path d="M171 434.812V401.449L274.746 253.98H218.836L217.875 260.164H177.809L177.703 213H341.93V245.145L237.879 393.984H304.453L308.719 367.629H348.633L344.215 434.812H171Z" fill="white"/>
  <g filter="url(#filter0_d_1297_27)">
    <path d="M303 434.812V393.582L303.004 393.707V260.258L178 260.383V213H380.395C408.324 213 430.109 218.129 445.75 228.387C461.391 238.645 469.211 253.93 469.211 274.242C469.211 284.703 466.723 294.098 461.746 302.426C456.77 310.652 449.102 316.898 438.742 321.164C447.578 323.094 454.789 326.395 460.375 331.066C465.961 335.637 470.074 341.223 472.715 347.824C475.355 354.324 476.676 361.383 476.676 369C476.676 390.734 469.414 407.137 454.891 418.207C440.367 429.277 419.293 434.812 391.668 434.812H303ZM356.477 394.137H391.668C402.23 394.137 410.152 392.055 415.434 387.891C420.816 383.727 423.508 377.379 423.508 368.848C423.508 359.301 421.172 352.191 416.5 347.52C411.93 342.746 404.516 340.359 394.258 340.359H356.477V394.137ZM356.477 305.016H378.109C390.703 305.016 400.098 303.035 406.293 299.074C412.59 295.012 415.738 288.766 415.738 280.336C415.738 271.094 412.793 264.391 406.902 260.227C401.113 255.961 392.277 253.828 380.395 253.828H356.477V305.016Z" fill="white"/>
  </g>
  <defs>
    <filter id="filter0_d_1297_27" x="158" y="201" width="322.676" height="245.812" filterUnits="userSpaceOnUse" color-interpolation-filters="sRGB">
      <feFlood flood-opacity="0" result="BackgroundImageFix"/>
      <feColorMatrix in="SourceAlpha" type="matrix" values="0 0 0 0 0 0 0 0 0 0 0 0 0 0 0 0 0 0 127 0" result="hardAlpha"/>
      <feOffset dx="-8"/>
      <feGaussianBlur stdDeviation="6"/>
      <feComposite in2="hardAlpha" operator="out"/>
      <feColorMatrix type="matrix" values="0 0 0 0 0 0 0 0 0 0 0 0 0 0 0 0 0 0 0.23 0"/>
      <feBlend mode="normal" in2="BackgroundImageFix" result="effect1_dropShadow_1297_27"/>
      <feBlend mode="normal" in="SourceGraphic" in2="effect1_dropShadow_1297_27" result="shape"/>
    </filter>
  </defs>
</svg>
